<?xml version="1.0" encoding="UTF-8"?>
<svg version="1.1" xmlns="http://www.w3.org/2000/svg" width="500" height="500">
<path d="M0 0 C4.37898148 0.8757963 8.3265655 2.1021224 12.48828125 3.640625 C13.23790131 3.91464142 13.98752136 4.18865784 14.75985718 4.47097778 C17.27887304 5.39336912 19.79572436 6.321515 22.3125 7.25 C24.12277064 7.91496368 25.93307428 8.57983753 27.7434082 9.24462891 C45.47766053 15.76832786 63.16451485 22.41906306 80.85205078 29.06811523 C98.09365408 35.54769995 115.3581453 41.96268543 132.64526367 48.31982422 C133.51260635 48.63958725 134.37994904 48.95935028 135.27357483 49.2888031 C136.98375742 49.91771391 138.69528558 50.54297871 140.40818787 51.16444397 C144.72261273 52.73980964 148.97496765 54.39454903 153.19482422 56.20922852 C164.94940451 61.17870916 175.18801468 63.17161636 187.93493652 63.28662109 C191.8247446 63.32238014 195.7107968 63.44151467 199.59893799 63.55673218 C201.56623801 63.6150158 203.53365151 63.66959316 205.50115967 63.72036743 C214.61944439 63.96883488 223.67103644 64.64266542 232.75 65.5 C233.42301147 65.56039459 234.09602295 65.62078918 234.78942871 65.68301392 C242.01076521 66.33353341 248.96425233 67.23344864 256 69 C256 70.32 256 71.64 256 73 C243.98265849 75.44450896 232.10042224 76.7192763 219.86474609 77.453125 C217.03022572 77.62318656 214.19680991 77.80639846 211.36328125 77.9921875 C209.47138712 78.11249851 207.57945971 78.23228729 205.6875 78.3515625 C204.74147415 78.41294403 203.7954483 78.47432556 202.820755 78.53756714 C197.792285 78.8443578 192.79292441 79.02949091 187.75463867 79.03955078 C172.77235301 79.14245675 161.09624817 81.92272089 147.3125 87.625 C145.28077794 88.43063399 143.24726347 89.23175953 141.2121582 90.02880859 C137.95339931 91.30627089 134.69626003 92.5870067 131.44432068 93.88174438 C122.87858294 97.29100667 114.26413898 100.55418 105.6171875 103.75 C104.96461346 103.99119064 104.31203941 104.23238129 103.6396904 104.48088074 C100.32118504 105.70658165 97.00188923 106.93012475 93.68218994 108.15258789 C87.73859395 110.34198857 81.80050019 112.54623289 75.8619194 114.74919128 C73.29912327 115.69972741 70.73606735 116.64956193 68.17301369 117.59940338 C57.83645957 121.43014757 47.50209776 125.2667791 37.16983032 129.10906982 C35.38296907 129.77345738 33.59600625 130.43757185 31.80892944 131.10137939 C29.3710482 132.00696801 26.93350831 132.91346866 24.49609375 133.8203125 C23.7554216 134.09541656 23.01474945 134.37052063 22.25163269 134.65396118 C18.85101256 135.92077638 15.4590852 137.20445551 12.08251953 138.53417969 C10.32657471 139.22495605 10.32657471 139.22495605 8.53515625 139.9296875 C7.52976807 140.33171387 6.52437988 140.73374023 5.48852539 141.14794922 C3 142 3 142 0 142 C0 121.21 0 100.42 0 79 C-5.445 78.731875 -10.89 78.46375 -16.5 78.1875 C-27.68463517 77.59291232 -38.81795887 76.89259858 -49.9375 75.5 C-50.89914063 75.38164795 -51.86078125 75.2632959 -52.8515625 75.14135742 C-57.1733311 74.55973254 -61.03160811 73.92206037 -65 72 C-64.67 71.01 -64.34 70.02 -64 69 C-54.31231264 67.00116492 -44.67599362 65.65643468 -34.8125 64.875 C-33.87220947 64.79975098 -32.93191895 64.72450195 -31.96313477 64.64697266 C-21.31586326 63.86103323 -10.67321601 63.48514618 0 63 C0 42.21 0 21.42 0 0 Z " fill="#B3B3B3" transform="translate(222,179)"/>
<path d="M0 0 C63.03 0 126.06 0 191 0 C187.15893877 2.88079592 183.44262374 4.72077826 179.08203125 6.59765625 C177.89300705 7.11703011 177.89300705 7.11703011 176.67996216 7.64689636 C174.05954868 8.79025828 171.43603011 9.92630995 168.8125 11.0625 C166.96859139 11.86566019 165.12492648 12.66938008 163.28149414 13.47363281 C159.44217753 15.14815104 155.60181486 16.82023674 151.76074219 18.49072266 C143.66717593 22.0130582 135.58763778 25.56725233 127.50750732 29.12026978 C123.24019721 30.99610459 118.97166465 32.86915261 114.703125 34.7421875 C113.46875198 35.283843 113.46875198 35.283843 112.20944214 35.83644104 C110.58860842 36.54767132 108.96776909 37.2588888 107.34692383 37.97009277 C105.08079602 38.96454405 102.8147973 39.9592889 100.54882812 40.95410156 C93.25592853 44.15528455 85.96016406 47.34965397 78.65763855 50.52882385 C74.75081855 52.23120621 70.85109595 53.94893163 66.95503235 55.67578125 C64.34426804 56.83051994 61.72945843 57.97587819 59.11367798 59.11920166 C57.29782098 59.9165029 55.48708448 60.72543423 53.67651367 61.53466797 C52.59217041 62.00662598 51.50782715 62.47858398 50.390625 62.96484375 C49.44219727 63.3837085 48.49376953 63.80257324 47.51660156 64.23413086 C44.75786235 65.07368896 43.60031041 65.2159825 41 64 C39.63476563 62.42797852 39.63476563 62.42797852 38.40625 60.37890625 C37.94001221 59.61827881 37.47377441 58.85765137 36.9934082 58.07397461 C36.5005835 57.24518799 36.00775879 56.41640137 35.5 55.5625 C34.42257082 53.8034622 33.34309543 52.04567632 32.26171875 50.2890625 C31.71563965 49.39735352 31.16956055 48.50564453 30.60693359 47.58691406 C28.26167363 43.81140895 25.7973414 40.12206724 23.3125 36.4375 C18.4734538 29.2284097 13.68264638 21.98841135 8.92318726 14.72659302 C8.14266321 13.53630552 7.36127395 12.34658493 6.57901001 11.15744019 C5.48271333 9.49055344 4.38971792 7.82149689 3.296875 6.15234375 C2.66104492 5.18288818 2.02521484 4.21343262 1.37011719 3.21459961 C0 1 0 1 0 0 Z " fill="#B3B3B3" transform="translate(21,265)"/>
<path d="M0 0 C5.55230872 0.58814706 10.04022452 2.58615447 15.05859375 4.875 C15.94247269 5.27111481 16.82635162 5.66722961 17.73701477 6.0753479 C19.64329116 6.93045983 21.54816934 7.78869422 23.45178223 8.64971924 C28.54885755 10.95485431 33.65623248 13.23700866 38.76171875 15.5234375 C39.79793365 15.98833588 40.83414856 16.45323425 41.90176392 16.93222046 C51.48887319 21.23036354 61.112623 25.44105502 70.75 29.625 C73.91555352 31.00086769 77.08084401 32.37733987 80.24609375 33.75390625 C81.0319989 34.09560349 81.81790405 34.43730072 82.62762451 34.78935242 C92.3654372 39.02533921 102.08919014 43.29335438 111.8125 47.5625 C112.65123657 47.93054749 113.48997314 48.29859497 114.35412598 48.67779541 C125.91746629 53.75228702 137.46474068 58.86199785 149 64 C149 64.33 149 64.66 149 65 C85.97 65 22.94 65 -42 65 C-38.77488415 59.19479146 -35.58894195 53.70292677 -31.875 48.25 C-25.79883035 39.23435263 -19.83756926 30.14605364 -13.88861084 21.04626465 C-9.28891426 14.01078126 -4.68184179 6.98126926 0 0 Z " fill="#B3B3B3" transform="translate(63,170)"/>
</svg>
